<svg xmlns="http://www.w3.org/2000/svg" width="512" height="512" xmlns:v="https://vecta.io/nano"><path  style="stroke:none;fill-rule:nonzero;fill:#ff4332;fill-opacity:1" d="M54 29h2 7 5.2 14.2H98h33.5 21 58 3.7 3.8 7.5 3.8 60.5 62 35 29.7 15 14 5C468 29 483 32.7 496 45c9.2 9 16 21.6 16 35v3 3.2 3.4 11.2 4V123v21 18.2 7.7c.1 21.6-1.7 37.4-17 53.8-14 13.4-29.8 15.6-48.2 15.6h-5-14-15.2H383h-24.2-3.5-7-65.7-60H161h-34.6-29.8-15-13.8-5c-18 .1-33.2-3.4-46.6-16C6.5 213.8-.1 200.8-.2 187v-2.4-2.6-8.4-5.8-12.2L-.3 140v-12-5.8-8-2.4c0-5.3 0-5.3 1.7-7.8 2.6-1.6 4.6-2 7.7-2 3.5 1.6 4.8 2.7 7 6l.3 7.5v2.3 5 8l.1 22.4V167v5.2c0 14.4 1 27.2 11.5 38l1.6 1.7c5.8 5.6 13.7 9 21.6 10l3.8.4.7-4 2.8-14.6 1.2-6.3c7-36.3 7-36.3 22.2-47 6.2-3.8 12.3-5.3 19.6-5.3h3.4 3.7 4 11 11.7H161h16 44 3 3 5.8 3H282h47.5 26.7H379h11 12.6 3.7c11 .1 20.2 2.2 28.6 9.4 16.8 17.4 18 46.4 22 69 14-4 25.2-8 33.3-21a49 49 0 0 0 5-24.6v-3V164v-7-15-19-14.7-7c.4-22.8.4-22.8-10.5-42A44 44 0 0 0 450.1 46h-7-5-13.8-15H380h-23.8-3.4-7-64-59-60.6-34-29-14.8H71h-5A58 58 0 0 0 34 52.8c-2 1.2-2 1.2-4 2-2.4 1.4-2.8 2.6-4 5l-3 4c-4 5.8-5.3 11.8-6.5 18.5-1 6-1 6-3.3 8.5-3 1.3-5 1.4-8.2 1-2.7-1.7-2.7-1.7-5-4-2.7-12 2.7-25 9-35a55 55 0 0 1 45.1-24zm33 139c-4.6 5.7-6.7 12-7.4 19l-.3 2.7-.2 2H81l105 .3h12.6 2.5 40.7l41.7.1 25.8.1 17.6.1H337h11 3.3 3 2.6c2.2.1 2.2.1 5.2 1v12c-3 1-4.8 1-7.8 1h-3-3.3-3.5-9.7-10.4l-18 .1-26.2.1-42.5.1-41.3.1h-2.6H181L75 208l-3 15h368l-3-15h-5l-18.3-.3-8-.1-11.4-.2h-3.6l-3.3-.1h-3c-2.4-.3-2.4-.3-5.4-2.3-.8-3.5-1.4-6-.2-9.4 1.2-1.6 1.2-1.6 3.2-2.6a92 92 0 0 1 5-.2l3.2-.1h3.4l3.5-.1 11-.2 7.5-.1 18.4-.3-1.8-7.7-.5-2.2c-2-8-5.6-14.6-12.7-19-3-1-5-1-8.3-1h-3.4-3.7-4-11H377h-25.7-16H291h-3-3-5.8-3H230h-47.6-26.7H133h-11.6-12.6-3.8c-7.4 0-13.2.6-18.3 6.5zm127 229c9.5 7.3 14.6 14.2 17 26 1 8.2-1.4 16.2-6.2 23-5.3 6.2-11.7 10.2-19.8 11-4.3.1-7.2-.3-10.6-3-2-3.8-1.7-5.8-.4-10 2.7-3 5-4 9-5 4.2-1 6.2-2.7 9-6 2-4 1.7-9 .4-13-3-5.7-7.4-8-13.4-10a25 25 0 0 0-17 4 25 25 0 0 0-9.3 17.3 34 34 0 0 0 7.4 24.8 35 35 0 0 0 24.2 10.2 47 47 0 0 0 30.5-12.5c10.7-11.4 11.6-24.3 12.2-39.2l.2-3.6.2-3.2c.7-3.4 2-4.7 4.6-6.8 2-.5 2-.5 4-.5h2c3 .8 4 2.2 6 4.5.5 2.5.5 2.5.5 5.4v3.2l-.1 3.3v3.4c-.4 17.5-4.6 32.7-17 45.5-13.8 13-29 18-47.6 17.5-11.6-.6-21-5-29.4-12.7L168 468l-1.5-1.5a48 48 0 0 1-11.8-34.4c1-11.8 5.4-22.3 14-30.5 12.2-9.2 31.6-13.3 45-4.6zm-29.8-90.3c7.3 6 12 12 13.2 21.6.4 9.2-1 16-7.2 22.8-6.2 5.8-11.5 7-19.7 7.3a10 10 0 0 1-6.4-3.4c-1-3.7-1.3-6-.2-9.7 3-3 5.8-3.6 9.8-4.5 2.6-1 3.7-1.6 5.4-3.8 1.4-5.5.8-8.2-2-13v-2c-6.2-2.5-12-3-18.2-1a22 22 0 0 0-9.7 13c-1 7 .4 13 4 19 4.8 5.5 10.4 9.5 17.8 10.3 12 .5 20.2-4 29-11.8a38 38 0 0 0 8.2-15.6c1-2.7 2-4 4.2-6 3-1 4.6-1 7.6-.4 3.2 2 4 2.8 5.4 6.4-.3 11.8-6.7 21.4-14.6 29.7a55 55 0 0 1-36.4 15.5 47 47 0 0 1-34-16.2c-7-8.8-9.6-19.7-8.8-30.8 1.3-9 4.8-17.3 11.6-23.6 13-9.6 27-11.5 41.3-4zM55.6 52H59h4 4 13.2 4.6H106h24.7 19H161h11 5.8 3.5 3c3.5.6 5.2 2 7.7 4.5.6 2 .6 2 .6 4v2c-.8 3-2.3 4-4.6 6-2.5.5-2.5.5-5.4.5h-3.3-3.7-4-8.3a1722 1722 0 0 0-13.2 0h-25.6H92 79a1306 1306 0 0 0-6.2 0h-7.5A46 46 0 0 0 47 72l-3 1c-3.2 5-4.2 10.6-4.2 16.5v3.8 2 6.3 18 11 4.2 6 3.4c-.8 4-2.5 5.5-5.6 8-3 .6-3 .6-6 0-3.2-2.6-4.8-4-5.6-8v-3.6-2-6.5-4.5-9.5-12-9.4V92C22.5 80.5 24 70.5 32 61.7A35 35 0 0 1 56 52zM295 253.5h2c3 .8 4 2 6 4.5.5 3.3.5 3.3.5 7.3v2.2 4.7 7.5V293v21 7.3c0 12 1.4 22.2 9.4 31.6a33 33 0 0 0 24 10.4 27 27 0 0 0 10.3-1.9c4.7-2 8.3-2.5 13-.5 2.5 3 3 6 2.6 10-2 4.4-5 5.6-9.4 7.3a51 51 0 0 1-37.5-1.5 56 56 0 0 1-28.1-32.8 49 49 0 0 1-1.3-12v-2.4-7.8-5.5-11.4V290v-11.3-5.4-7.5-2.2c0-3.5.3-5.3 2.4-8a8 8 0 0 1 6.1-2zM465 68.7a35 35 0 0 1 16.5 23.2c.7 4.6.4 8.6-.5 13l-.4 2a34 34 0 0 1-16.4 19c-9.4 4-18.6 3.6-28-.1-7-4-14-10.6-16.5-18.4a38 38 0 0 1 3.7-28c2.8-4 5.8-7 9.8-9.6l2-1.3a34 34 0 0 1 30 0zm-27 19c-3 3.8-3.6 7.7-3.2 12.4 1.2 4.6 3.3 8 7.3 10.5a17 17 0 0 0 13.7.8c4.6-2.3 7.4-5.4 9-10.3.8-4.3.3-7.4-1.7-11.2-3.6-4.3-6.2-6.8-11.7-7.7-6-.4-9 1.6-13.4 5.6z"/><path style="stroke:none;fill-rule:nonzero;fill:#ff4332;fill-opacity:1" d="M256 253.5h2c3 .8 4 2.2 6 4.5a17 17 0 0 1 .5 5.2v3.2 3.5 3.7 10 8.3 19.6 20.3 17.4 10.4V371v3.5c-.1 7.7-.1 7.7-3 11-3.3 1.6-5 2-8.6 1.3-2.6-1.8-2.6-1.8-5-5-.8-4-.7-8-.6-12v-3.6-10V346v-17-20-19.3-8.2V270v-3.4-3.2-2.7c1-4.5 4-7 8.5-7zM362 306c9.3 5.6 15 13.6 18 24 1.3 6.6 1.6 12.7-1 19-3 2.2-5 3-8.6 3-3-1.2-4.3-2.4-6.4-5l-1-7.7c-.6-6.8-1.8-11.5-7-16.2-3.5-2.7-6.6-3.7-11-4-4.3.7-6.4 1.3-9.4 4.5-2 3.3-2.8 5-2.8 9v2.4c.1 2.5.1 2.5 2.2 5.2 2.5.8 2.5.8 5.4 1.3 5.3 1.3 5.3 1.3 8 4.4 1 4 .3 6.4-1.3 10.3-4.5 3-8.7 2.7-14 2-7.4-2.3-12.3-6.2-16-13a34 34 0 0 1 .6-26.4c4.2-8 9.7-12.8 18.2-15.8 9.3-2.4 17.8-1.4 26.2 3.2zm34.2-228.5c5.6 4.7 9.2 9.3 10 16.8.4 7.8-1.6 13.7-6.7 19.6l-2.5 2-2 1.7c-5.2 3.2-11.2 4-17 3.3-7.6-2-12.7-5.4-17-12-3.3-6.3-3.6-12.2-2-19a25 25 0 0 1 13.1-15.1c8.2-3.3 17-2.6 24 2.6zm-19.6 14c-2 3-2.2 4.7-1.6 8.4 1.5 2.5 1.5 2.5 4 4 3.7.6 5.3.5 8.4-1.6 2-3 2.2-4.7 1.6-8.4-1.5-2.5-1.5-2.5-4-4-3.7-.6-5.3-.5-8.4 1.6zM217 253.5h2c3 .8 4 2.2 6 4.5a18 18 0 0 1 .5 5.3v3.2 3.4 3.5 7.4V292v7.2 3.4c-.1 7.8-.1 7.8-3 11-3.3 1.6-5 2-8.6 1.3-2.6-1.8-2.6-1.8-5-5a58 58 0 0 1-.6-11.7v-3.4-7.2-11-7-3.3-3-2.7c1-4.5 4-7 8.5-7z"/></svg>