<svg xmlns="http://www.w3.org/2000/svg" width="512" height="512" xmlns:v="https://vecta.io/nano"><path  style="stroke:none;fill-rule:nonzero;fill:#ff4332;fill-opacity:1" d="M335 3.4A27 27 0 0 1 346.3 21l.2 6.4v2.4 5l.1 7.5V47v2.3c-.1 3.8-.3 5.4-3 8.2-3.2 2-5 2.2-8.7 1.5-3.2-2.4-4.3-4.2-5-8v-6.6l-.1-4-.1-6v-6V25c-.8-4-2.5-5.6-5.6-8.2-3-1-6-.7-9 0a20 20 0 0 0-6 7L309 31v2.3l-.1 7.5-.1 5.2-.2 13.6-.2 14-.3 27.3h22l-.2-9.3A26 26 0 0 1 332 80c3.5-2.3 5-2.5 9-2l5 4v19h82l-.3-50.4v-7.2-4.8c-.1-12.5-.1-23.3 9-32.7 6.8-6 13.6-6.6 22.6-6.4 7 1 12.3 3.6 17 8.8a35 35 0 0 1 6.7 23.3V34v7.4 5.2V60v14 27h2.5 3.3 3.3c3.7.1 6 1 9 3 4.7 5.2 5.2 8.5 5.2 15.3v2.6 8.5 3V149l.1 16v12.4 6a118 118 0 0 1-8.2 49.3l-1 2.5a112 112 0 0 1-19.2 30l-2 2.5c-10.7 12.4-23.7 22-38.7 28.6l-2.4 1-1.8.8v4 14.2l-.1 6-.1 8.8v2.8c-.1 5.7-1 8.8-4.6 13.2l-1.4 1.8c-2.3 1.8-5 2.4-7.6 3.3v3.4V387v16.2V419v6 8.4 2.5c-.1 4.3-.3 6-3 9.3-2.6 2-2.6 2-5.6 2.6-4-1-5.4-2.3-8-5.6-.7-3-.6-5.8-.6-8.8v-2.7l.1-8.7v-6l.1-16v-16.2l.2-31.7h-29v145h29l-.5-16.7c-.1-9.6-.1-9.6 2.8-12.6 3.3-2 4.8-2.5 8.7-1.7 3.4 2.7 4.8 4 5.6 8.4v4 2l-.1 4.4v6.6c-.1 12.4-.1 12.4-3.5 17.7-4.4 4-9.7 3.5-15.4 3.4h-3a898 898 0 0 1-6.3 0 779 779 0 0 0-9.7.1h-6.2-3c-4.2 0-6.8-.1-10.5-2.3a16 16 0 0 1-4.3-12.5v-4-4.3-4.5l-.1-12.2-.1-12.7-.1-24-.1-27.5-.3-56.5-3.3-1.4a30 30 0 0 1-8.7-5.6l-1.7 2.3c-13 17.5-13 17.5-17.3 19.7-3.2.3-5.4.3-8.3-1-2.5-3-3-6.2-2.7-10a41 41 0 0 1 5-6.6l3-3.7 1.6-2A122 122 0 0 0 334 328l1-1.8c5.4-9.6 7-17.2 6-28.2l-3.3-1.7c-13-6.7-24-14.3-34.7-24.3l-1.8-1.6C280.4 251 270 221.6 268 194v-10.4-2.8-9-6V151c-14.4-3.8-27.8-6.4-42.7-6.3h-2c-10 0-19.5.6-29.3 3.3l-3.7 1c-20.3 6.2-38 17.2-53.3 32l-2 1.8c-22 20.4-32.7 52.3-34.3 81.6a126 126 0 0 0 35 90.3c22.6 23.3 53.4 37 86 37.7a135 135 0 0 0 69.6-18.6c3-1.3 5.6-.6 8.8.2 2.6 2.2 3 3.6 3.4 7-.6 4-1.7 5.2-4.4 8a60 60 0 0 1-7.4 4.4l-2.2 1.2c-34.6 17.4-75 19-111.4 7.2A141 141 0 0 1 98 330a144 144 0 0 1-6.8-107.8 145 145 0 0 1 73.5-81.8 137 137 0 0 1 59.7-12.7h2.2c14.5 0 27.7 1.6 41.5 6.3v-1.7-7.8l-.1-2.7c-.1-6 .8-10.7 4.4-15.8 4.7-4.4 7.3-5 13.6-5h3.6 2.8v-3l-.1-27.5v-14-13.7-5.2c-.1-12.3 0-22.2 9-31.6 9.3-8.2 23.5-8.8 34-2.5zM446 20c-2 4-2.3 8-2.2 12.5v2.2V42v5 13.4V74v27h23l.2-29V58.6v-13-5-7-4c-.5-5-1.8-8.8-5-12.6-6-2.7-12-2-16.4 3zm-162 97c-4 83.2-4 83.2 34 147a111 111 0 0 0 32.5 20.4c3 2 5 4.2 6.5 7.5a58 58 0 0 1 .6 10.2v2.6l.1 9.6.3 21.6h58l.4-25.6.1-5V303c.2-6.4 1-12.4 5.6-17.2a147 147 0 0 1 12.1-6.5 91 91 0 0 0 19.8-13.2l2.5-2c19.6-16.6 29-39 33.5-64v-83H284zm-39 48a12 12 0 0 1 5 5c1 8.2-.8 16.6-2.2 24.7l-.7 4.2-1.4 8.7-1.8 11-1.7 10.6-.3 2-1 5.7-.5 3.3-1.5 5.7h3 11.6 5 7.2 2.3c6.7 0 6.7 0 9.8 2.2 2.7 4 2.8 7.3 2 12a85 85 0 0 1-6.1 11.6l-2 3.3-6 10-3.5 6-7 11.8-11.5 20-2 3.5-9.4 16.6-4.4 7.7-2 3.7c-8.7 15.5-8.7 15.5-13.3 17.8-4.7.5-7 .6-11-1.8-5-8-1.3-20 .2-28.7l.7-4 1.4-8.5 1.8-11 1.7-10.5.3-2 1-5.6.5-3.2c.5-2.6.5-2.6 1.5-5.6h-3l-11.2.1H192l-7 .1h-2.2c-4.5 0-7.2-.6-10.8-3.3-2-2-2-2-2.5-5.8.2-6.8 3.8-12 7.2-17.7.7-1.2 1.4-2.4 2-3.6l5.3-9 4.6-7.8 7-11.7 11.5-20 4-7 1-1.8 11.3-19.7 2-3.3c9.7-16.8 9.7-16.8 20-15.3zm-17 43l1 2zm-1 2l-1.2 2.2-5.8 10.2-1 2-12 21-1 1.7-4.7 8.2-11 19.8h3l10.5.1h4.6l6.6.1h4c4.3.8 5.8 2.2 8.5 5.7 1 8.2-1 16.6-2.5 24.7l-1 6.3-1 5.7a57 57 0 0 0-.5 9.4 62 62 0 0 0 7-10l1.7-3 1.8-3.2 17-29.6 7.6-13 1.2-2.2c1-1.7 1-1.7 1-3.8H257l-10.2-.1h-4.4l-6.4-.1h-4c-4.3-.8-5.8-2.2-8.4-5.7-1-8.2 1-16.6 2.5-24.7l1-6.3 1-5.7a57 57 0 0 0 .5-9.4h-1zm-6 117l1 2zM70 352c2.4 1 2.4 1 4 3 1 3.3 1 3.3 1 7-4 6.6-10.7 9.7-17.4 13.4l-3.4 2L51 379l-3 1.7c-3.2 1.3-5.4 1.6-9 1.2-3.3-2.5-4.8-4-5.6-8 1-5 4.2-7 8.2-9.7 3-2 6.2-3.8 9.3-5.6l3.2-2c10-5.6 10-5.6 16-4.6zM43.5 154.5c5.4 1 10 4.4 14.7 7.2l3.3 2c11.8 7 11.8 7 13.4 12.3.1 3.2-.1 4.5-2 7-3.6 2.4-4.7 2.6-9 2l-9.8-5-2.6-1.4c-16-9-16-9-17.6-12.4-.4-3.7-.2-5.6 1.5-9 2.8-2.4 4.4-2.7 8-2.6zM320 419c4.7 3.8 7.3 8.6 10 13.8l1.3 2.3 3.7 7 1.2 2.2 1 2 1 2c1 3 .7 5-.3 7.8-1 2-1 2-3 3-5.5.7-5.5.7-8 0-5.5-4.3-8.4-10.5-11.7-16.4l-1.8-3-1.7-3-1.5-2.7c-1.3-3-2-5.5-2.2-8.7 2.8-6 5.5-6.7 12-6zm-183 0c2.4 1 2.4 1 4 3 1.3 4.7 1 7-1.3 11.3l-1.7 3-2 3.6-1.2 2.2-4 7-1.3 2.3-1.2 2-1 2C126 457 126 457 123 459c-3.5.5-6.8.7-10-1-1.5-2.6-1.8-5-2-8l2.3-5.3 1.7-3 2-3.6 1.2-2.2 4-7 1.3-2.3 1.2-2 1-2c3-4.2 6.4-4 11.2-3.6zM124 78c5.4 5 8.8 13 12.4 19.3l1.3 2.4c4 7.3 4 7.3 4.3 11.3-2.3 5.6-2.3 5.6-5 7-3.2.5-3.2.5-7 0-5-4.2-8-10.4-11.2-16l-1.3-2.4L114 93l-1.8-3.4c-1.5-3.4-1.3-5-.2-8.6 3.3-4.3 7-4.3 12-3zm106 366c2.7 2.5 3 4 3.4 7.6v4.3 2.3 4.8 7.4 4.7 2.2c0 3-.2 5.4-1.7 8-2.7 2.5-5 2.5-8.7 2.6-3-1.3-4.5-2-6-5l-.2-7.7V473v-5l-.1-7.4V456v-2.2c0-3.2.2-5.4 1.7-8.2 3.6-3.4 7-2.6 11.7-1.6z"/><path style="stroke:none;fill-rule:nonzero;fill:#ff4332;fill-opacity:1" d="M225 48.4c4 1 5.4 2.4 8 5.6a40 40 0 0 1 .6 8v2.3V69v7.3V81v2.2c-.1 3.5-.3 5.3-2.5 8-2.5 1.8-4 2.4-7 2.6a9 9 0 0 1-7-5 95 95 0 0 1-.4-7.8v-2-5l-.1-7.4V62v-2.2c0-4 .5-5.7 3-8.8 2.7-2 2.7-2 5.7-2.7zM25 259.8l6.5-.1h4 3.8A20 20 0 0 1 49 263c1.5 3 1.3 5.6 1 9-1.5 2.2-1.5 2.2-4 4a52 52 0 0 1-8.1.5h-2.4a422 422 0 0 1-5 0 408 408 0 0 0-7.6 0h-5-2.3c-3.5-.1-5.5-.3-8.3-2.4-2.2-3.2-2-5.4-1.5-9.2 4-7 12-5.2 19-5.2z"/></svg>