<svg xmlns="http://www.w3.org/2000/svg" width="512" height="512" xmlns:v="https://vecta.io/nano"><path  style="stroke:none;fill-rule:nonzero;fill:#ff4332;fill-opacity:1" d="M500.4 1.6C506 5 510 9.8 512 16l.4 6.3.1 3.2c-1.2 9-7 14.6-13.2 20.7l-2.7 2.7-7.4 7.4-8 8-14 14-20 20-32.6 32.5-31.6 31.6-2 2-9.8 9.8-81.2 81c1.4 3.2 2 4 5 6l1.6-1 2-1.4 2-1.4c5.5-3 11.5-2.8 17.5-1.3 6 2.2 10.2 6.6 14.7 11l2 2 13 13 2.8-2.3 1.6-1.3c1.4-1.2 2.7-2.5 4-3.8a30 30 0 0 1 22.8-9.9c12.6.2 19 4.8 27.8 13.4l3.7 3.4 4 3.6 2 1.7c3.3 3.2 4.8 5.2 5 9.8.2 3.7.8 5.3 3.4 8l3.7 3 2 1.7 5.5 4.7 4.3 3.8 1.8 1.6 7 6.2 11 9.7 7 6.2 10.4 8.8 15.4 13.8 10 9a17 17 0 0 1 6 10.8c.3 7.4-2.2 12-7 17.4l-2.3 2.4-2.7 2.7-3 3-3 3.2-8.5 8.5-5.3 5.3-18.5 18.6-17.2 17.3-14.8 15-8.8 9-8.3 8.3-3 3c-6 6-11 11-19.7 11.8l-2-.3-2-.2c-6-2-10-6.4-14.2-11l-1.6-1.8-4.5-5-2-2-7.8-9-3-3.5-1.5-1.8-12.7-14c-8.7-9.2-8.7-9.2-9.7-15.2.6-3.3.6-3.3 2.8-5.7 3.4-2 5-2.3 9-1.6 4.4 3 7.6 6.7 11 10.8 2 2.5 4.3 4.8 6.4 7.2l9.7 11 6.2 7c4 4.5 8 9.2 11.7 14 2 2.4 2 2.4 5 4.3l105-105-5-5-1.7-1.8a246 246 0 0 0-16.4-14.9l-19.4-17.2-10.5-9.4-7-6.2-11-9.7-11-9.8-16 15-2.7 2.7-7.2 7.2-7.5 7.5-14.2 14.2-16.2 16.2-34 32.5 1.3 1.4 1.6 2 1.6 1.8c2.2 2.8 3 5.3 3.5 9-1.5 3.6-2.7 4.8-6 7-3.6.1-6-.1-8.7-2.6l-3-3.8c-2.5-1.8-3.2-1.7-6.2-1.7-7-.5-11-6-15.7-10.8l-2.8-2.8c-9-9-13.8-17.6-13.8-30.5.2-10 4.6-15.7 11.3-22.8l3.4-4 2.6-3a23 23 0 0 0-6.4-8.4L273 337l-5.5-5.3c-6.7-6.5-11.2-12-12-21.6.2-6 2.8-11 5.6-16l-4-4a26 26 0 0 0-8.7 6.4l-2.8 2.8-3 3-3 3-8 8-8.2 8.3L207 338l1 1.8c3.4 6.8 5.2 12.6 4 20.2-2.8 7.7-7.4 13-13.3 18.6l-2.2 2.2-5.4 5.2c1.5 3.4 3.4 5.6 6 8.2l2.5 2.5 2.7 2.7 4.2 4.2 10.4 10.2 6 5.8 5.5 5.4c6.5 6.4 10.2 11.7 10.7 21-.8 11.2-9.3 18.6-16.8 26l-2.2 2.2-4.6 4.6a1180 1180 0 0 0-6.9 7l-4.5 4.5-2 2c-5.5 5.4-11.6 9.7-19.3 11l-2.6-.1h-2.6c-2.5-.4-2.5-.4-5-1.5-2.3-1-2.3-1-4.4-.8-2.8 1.3-4.5 3.2-6.6 5.4-3.7 4-5.5 5.7-11 6l-2.5.2c-9.6-2-17.4-12.8-24-19.5l-4-4-10.7-10.7-11.4-11-18.7-18.8L57.6 427 39 408.3l-11-11L17.6 387l-3.8-3.8-5.2-5.2-1.6-2c-4-4.2-7.3-8-7.5-14 .1-5.3 2.2-7.8 5.8-11.5l4.3-4c1.8-1.8 1.8-1.8 1.3-4.4l-1-2a26 26 0 0 1-1.4-8.1l-.1-2.7c1.5-9.3 7.4-16 14-22.2l2.4-2.4 5-5 7.7-7.6 5-5 2.3-2.3c6.8-6.6 12.4-11 22.2-11.8 11 1 17.4 8 24.8 15.6l2.8 2.8 7.3 7.4 7.5 7.5L124 321a21 21 0 0 0 7.1-5.1l1.7-1.8 1.8-2c6.6-6.8 12.6-12.2 22.5-12.7a42 42 0 0 1 17 5.5l48-48c-1.8-3.8-1.8-3.8-3.7-6.3-1.2-2.7-1.2-2.7-.6-6.4 1.4-3.3 1.4-3.3 4.4-5.3 4.3-.5 6.3-.5 10 2l2 2c3.8-1.6 6.2-4 9-7-1.4-3.2-3-5.3-5.5-7.8l-2.2-2.2-2.5-2.5-2.6-2.6-7.2-7.2-7.7-7.8-15.2-15.2-12.3-12.3-35-35-2-2-2-2-30.6-30.6L87 77.3 69.5 60l-15-15-7.7-7.7-8.3-8.3-2.4-2.5-2.3-2.2-2-2c-2.3-1.8-4-2.2-7-2.5-2.2.4-2.2.4-4 1-1 4.2-1 4.2 0 8.2 2.8 4 6 7 9.4 10.4l2.3 2.3 7.7 7.6L46 55l11.7 12 17 17 27.8 27.7 1.7 1.7L116 125l13.5 13.4 1.7 1.7 27.7 27.6 17 17 13 13 5.4 5.4 7.3 7.3 2.2 2 2 2 1.7 1.7c2.5 3 3.5 4.8 3.3 8.7-1 3.5-2 5-5 7-2.7.7-2.7.7-6 0-5.8-4.3-11-9.7-16-14.8l-2.3-2.3-7.6-7.6-5.5-5.4L154 187l-9.2-9.2-25.6-25.5-1.6-1.6-1.7-1.7-3.3-3.3-1.7-1.7-26.7-26.7L56.7 90 41.3 74.7 27 60.2 21.6 55l-7.2-7.2-2-2c-6-6-8.7-11.3-9.3-19.8-.1-6.7 2.3-12.4 7-17 6.8-5.3 12.7-6.3 21-5.8 8.3 2.2 14 8.6 20 14.5l2.7 2.6 7.2 7.3 7.8 7.8L82.3 49 102 68.6l31.7 31.8 30.8 31 2 2 9.5 9.6 79 79.2a30 30 0 0 0 9.1-6.8l1.5-1.5 5-5 3.6-3.6 7.7-7.7 12-12.2 19-19.4 34.4-34.5 12-12 7.5-7.5 3.5-3.5 4.7-4.8 2.7-2.7c2.5-2.4 3.5-3 7-3.3 3 .3 3 .3 5.4 2a12 12 0 0 1 2.7 8.4c-3 5.6-7.6 10-12.2 14.4l-2.5 2.5-7 7-7.5 7.5-13 13-18.7 18.7-30.3 30.3-29.5 29.4-1.8 1.8-9 9L186 317c1.7 3.8 4 6.2 7 9 3.8-1.6 6.2-4 9-7l1.5-1.5 5-5 3.7-3.7 10.2-10 11-11 26.5-26.4 12.5-12.4 41.4-41.3 2.7-2.7 2.7-2.7 5.4-5.4 2.7-2.7 43.3-43.2 44.4-44.3 25-25 21.2-21.2L472 50l10-10 3.6-3.6 5-5 2.7-2.7c2.4-3.5 2.4-5.6 2-9.8-2-2.3-2-2.3-5.2-2.5-5.4.8-7.6 3.4-11.3 7.2l-2.2 2.2-7 7-5 5a3079 3079 0 0 0-12.8 12.9l-15.5 15.7a4515 4515 0 0 0-12.1 12.2L422 81l-4 4.2-1.8 2-1.6 1.6c-2.3 2-3.5 2.3-6.7 2.5-3.6-.2-3.6-.2-6-1.4-2.3-2.6-2.6-4.4-2.6-8 2.3-5 6.2-8.5 10-12.3l2.2-2.2 7-7 5-5L433.8 45l12.8-13 10.2-10.2 5-5 6.8-6.8 2-2c8-8 19-11.3 30-6.5zM274 269.8l-2 2.2-2.2 2.3-1.7 1.8c1.5 3.7 2.5 4.4 6 7l9-9a159 159 0 0 0-5-6c-2.2-.2-2.2-.2-4 1.8zm33.5 2.2c-3.6 2.8-6.8 6-10 9l-2 2-4.4 4.4-6.8 6.7-4.3 4.3-2 2c-3.6 3.6-5.8 6-6 11.5.8 2 .8 2 2.5 3.4l2 2 2.6 2.6 3.8 3.8 11 11.3a25 25 0 0 0 8-5.7l2.3-2.3 2.5-2.5 2.5-2.5 8-8 5.4-5.5L336 295c-2.5-5.3-6.6-9-10.7-13l-2.4-2.5-2.4-2.4-2.2-2.2c-3.4-2.7-6.4-4.6-10.7-3zm53 21.4L358 296l-6.8 6.8-7.2 7.2-12 12-14 14-12 12-7 7-8 8-2.4 2.4-2.2 2.2-2 2c-3 3.4-4 6.2-4 10.7l-.1 2.5c1 6 6 10.4 10.2 14.5l1.5 1.5 3.7 3.6 17-15.8 3-3 8-8 8.3-8.3 15.6-15.6 17.8-17.8L402 297l-3-3.4-1.6-2-5-5.6-1.7-1.7c-3.4-3-6.2-3.8-10.6-4l-2.5-.1c-7 1.2-12.3 8-17.2 12.7zM60 293l-2 2-2 2-1.8 1.8-5.5 5.3-2 2-4 4-6.3 6.2-4 4-2 2-1.7 1.8-1.5 1.5c-1.4 1.8-1.8 3.3-2.2 5.6l1.4-1.2c4.8-4.2 8-6.7 14.5-6.8 10 1.7 18.5 14.2 25.4 21l4 4L81 358.8l6.7 6.7 21 21 24 24 18.6 18.6 11 11 10.4 10.4 3.8 3.8 5.2 5.2 1.5 1.5c4 4 5.7 7 5.8 13-.8 5.3-4.4 8.6-8 12.2l2 1 15.3-14.2 2-2 4-4 6.3-6.3 4-4 2-2c4.2-4 4.2-4 6-9.3-.6-4.5-3-6.7-6.2-9.8l-2-2-6.3-6.2-4.5-4.5-12.2-12.2-12.7-12.7-21.4-21.4-24.7-24.7-21.2-21.2L98.8 318l-12-12-4.4-4.4-6-6-1.7-1.8c-2.7-2.6-4.3-4-8-4.4a10 10 0 0 0-6.6 3.5zm91.2 25.8l-2 2L137 333a25 25 0 0 0 5.7 8l2.3 2.3 2.5 2.5 2.5 2.5 8 8 5.5 5.4L177 375a41 41 0 0 0 11.2-8.7l2-1.8 1.8-1.8 1.7-1.6c2-3.2 2.5-5 2.3-9-2-3.3-4.8-6-7.6-8.6L186 341l-5-5-7.7-7.6-5-4.8-2.3-2.3-2.2-2-2-2c-4-2.7-7.3-1.6-10.7 1.6zM37 342l-2.8 2.8-1.5 1.5L28 351l-3.2 3.2L17 362c5.6 7 12 13 18.2 19.4L39 385l10 10 10.5 10.5 20 20 22.7 22.7L149 495l3.4-3 2-1.6c2-1.8 4-3.7 6-5.6l2-2 2-2.2 2.2-2.2 5.3-5.4-18.2-19.4-3.7-3.7-10-10-10.5-10.5-17.7-17.7-20.5-20.5-17.6-17.6L63.3 363l-9.8-9.8-3.6-3.6-5-5-3-2.6c-2.6-2.6-2.6-2.6-5.2.1zm306 52a47 47 0 0 1 5 5l2.8 3 16 18.2c2.7 3.2 5.5 6.3 8.3 9.3a256 256 0 0 1 12.8 14.8c3.3 4 6.8 7.7 10.3 11.5 2.5 2.8 3 3.7 3.3 7.6-.3 3.6-.3 3.6-2 6-2.3 1.6-3.5 2.5-6.2 2.6-4.8-1.3-7.5-4.3-10.7-8l-1.6-1.8-11.3-13.5-8.3-9.3-12.6-14.7-10.3-11.3a38 38 0 0 1-7.1-9.5 18 18 0 0 1 2.1-8.9c3.2-1.7 6.5-2 10-1zm64-63a29 29 0 0 1 4.7 4c3.4 3.3 7 6.4 10.6 9.3l14 12.2 10.3 9 14 12.3a98 98 0 0 0 8.9 7.5c2.7 2.8 3 3.2 3.4 7-.7 4-.7 4-2.2 6.4-3.6 2.2-5.2 2.3-9.4 1.5-6.7-4.2-12.4-10-18.2-15.5l-8.2-7a217 217 0 0 1-12.1-10.6l-15-13c-11-9-11-9-12.6-12-.5-7.3-.5-7.3 1.3-10 3.8-2.4 6.5-2.2 10.7-1zm-33.3 30.4c5 1.3 8.5 5.8 12 9.5l2.7 2.8 7 7.3 7.2 7.4 20.7 22c2.8 3.2 5.8 6 8.8 9 3.2 3 4.5 4.5 5 9-.3 3.6-.3 3.6-2 6-3.5 2.3-5.3 2.3-9.4 1.6-3-2-5.5-4.4-8-7l-3.2-3a220 220 0 0 1-13.1-13.7l-11.4-12-2-2-6.6-6.5-8.7-8.7-2-2-2-2-1.6-1.6c-2.5-2.7-3.4-4.3-3.8-8 .4-3.6.4-3.6 2-6a13 13 0 0 1 8.2-2.2z"/></svg>