<svg xmlns="http://www.w3.org/2000/svg" width="512" height="512" xmlns:v="https://vecta.io/nano"><path  style="stroke:none;fill-rule:nonzero;fill:#ff4332;fill-opacity:1" d="M14 174.8h2.5 8.2 2.8 14.8l15.3-.1h11.7H75h8 2c3.7 0 5.8.4 9 2.4 3.4 3.5 3.4 6.2 3.4 10.8-.6 3.6-2.5 5-5.4 7.3-3.4 1-6 1-9.7 1h-2-6.7H69 56.8 44.4 20l.3 28.3.1 13.2c.2 25 .2 25 1.5 49.7v3c3.5 43.2 23.7 82.3 53 113.6l2.2 2.4c6.8 7 14.4 13 22.3 18.8l5 3.8c9.2 7.2 17 7 28.4 7h5.6 15.2 16 26.8 31H254h15.8 15 5.4c12 .1 18.8-1.2 28-9l3.6-2.6L343 406l2.3-2c37.2-35 52.4-86.8 53.8-136.4.3-10.8.4-21.7.5-32.5l.1-13.2.3-25.7h-3.2l-77.8.1h-37.6l-32.8.1h-17.4H215h-6-8.2-2.4c-4.8 0-8-.7-12.2-3.4-2.7-4-2.7-7.3-2-12 1.8-3 3-4.5 6-6h8.7 2.8 9.2 6.6 18 11.2 33 6 2H320h33.3H372h17.6 6.5 8.8 2.6c4 0 6 .2 9.5 2.4 3.2 3.3 3 5.3 3 9.8v3.4 3.6 3.6 8.8h3.2l29.8-.2 15.3-.1 14.8-.1h5.6 8 2.3c5.2 0 8.2 1.2 12 4.5 1.6 3.2 1.2 6.7 1.2 10.2v2.6 8.4 6V250l.1 15.7V278v5.8c.2 27.6-7 52.3-26.7 72.4L483 358l-2.2 2.2c-21.3 20-48.5 25.2-76.6 25h-5-12l-1 2.3c-7.5 18-27.5 35.5-42 47.7h3.6H381l17 .1 16.5.1h6.3 8.8 2.6c4.3.1 6 .3 9.7 3 4.3 6 2.5 15 1.5 22a69 69 0 0 1-28.3 41.8c-13 8-25 10.3-40 10.2h-4-11-12.2-24-19.4-2.8-5.6-52.7H195h-49.5-27.8-23.6-12-11-6A66 66 0 0 1 17 492C6 479.6.1 465.2-.4 448.7l-.1-2a11 11 0 0 1 2.6-8.4c3.6-3 5.4-3 10-3h2 7 4.8 12.5L51 435h25l-1.3-1.2-6-5.5-2-2c-37.5-35-64.8-84.8-67-137l-.1-8.6v-3.3V267v-3.7V244l-.1-19.8V209v-7.3-10.2-3c0-4.4.1-7 2.4-10.7 3.8-3.4 7-3 12-3zM420 227v19h4l15 .2h6.4l9.3.1h3c5 .1 8.5.2 12.4 3.5 1.2 2.3 1.2 3.7 1.2 6.3v2.7l.1 12.4v6.5c.3 17.8-.8 31.8-12.4 46l-1.8 2.5c-9.8 11.4-24.6 16.6-39 18l-11 .7-3.5 8.4-1 2.4-1 2.3-1 2c-.8 1.8-.8 1.8-.6 3.8 26 .7 47.4-2.8 67.8-20.4 16.8-16 23.7-36.2 24.3-59v-11-3.6-13.2V227h-72zm0 40l-.2 11a286 286 0 0 1-4.8 40l-1 6a38 38 0 0 0 25.9-9.5l2-2.5 2.6-2.7c7.6-9.3 7.6-21 7.5-32.3v-10h-32zM22 456c2 11.4 8 20 17 27 12.8 8.2 25.4 9.3 40.3 9.3h4 10.5H105h22.2 18 2.6 5.2 49 42 49 5.2 2.6 18 22H352h12.2 3.5c16.2-.1 30-2.6 42.2-13.8 5.2-5.6 11.6-14.5 11.6-22.4H22zM265 22c5.6 3.2 5.6 3.2 7 6 1 6.4-.4 10.6-3.8 16-3.2 5.2-2.7 11-2.2 17 1.4 5.5 4.2 9.4 7.8 13.7A60 60 0 0 1 287 121c-2.3 13-9.5 24.8-19 34-3.2 1.6-6.5 1.6-10 1-3.3-1.7-5.5-4-7-7.4 0-6.4 1.8-9.6 6-14.4a37 37 0 0 0 8.7-25.8 51 51 0 0 0-11-22.8c-9-13-12.2-24-10.5-39.6a45 45 0 0 1 11-22 14 14 0 0 1 10-2zM211 0c3 1.5 4.5 2.6 5.7 6 1.3 6.3-1 10.3-4.3 15.6-3 5-3 10-2.4 15.5 2 6.5 5.8 11.8 10 17.2a57 57 0 0 1 11.6 43.1A65 65 0 0 1 215 130l-1.5 1.7c-2.7 2.3-6 2.4-9.5 2.3-4.2-1.7-6.2-4-8-8-.7-3.2-.5-5 1-8l5-7c5.7-8.7 9.2-16.4 8-27-1.7-7.6-5.3-13.2-10-19.3A54 54 0 0 1 188 27a50 50 0 0 1 11.3-25.7c4-2 7.4-2 11.7-1.3zm-57 22c5.6 3.2 5.6 3.2 7 6a21 21 0 0 1-3 14.8c-3.3 6.2-4.2 11.2-3 18.2 2.3 7.3 7.2 13 11.8 19 6.8 9.5 9.5 19.8 9.5 31.3v2.7c0 15.2-7.3 28-17.4 39a12 12 0 0 1-10 3.4c-3-.6-4.8-2-7-4.4-1.6-3.3-1.6-6.5-1-10 1.7-3.2 4-6 6-9l3.3-5.3 1.5-2.4c3.7-7 3-16.5 1.7-24-2-6-5.8-10.6-9.7-15.4C134.2 74 131.4 61 133 46c1.6-8 5-16.3 11-22a14 14 0 0 1 10-2zm210.5 239.4c4 1 5.2 2.4 7.5 5.6a48 48 0 0 1 .5 10.8l-.1 3a125 125 0 0 1-3.4 26l-.6 2.5A166 166 0 0 1 327 385l-2 2.2c-2.6 2.5-4.3 2.7-8 2.8-4.3-1.2-6.4-2-9-5.7-1.3-4.2-1.4-6 0-10.2a102 102 0 0 1 6.3-7c22-23.8 35-57 36.3-89 .3-5.3 1-9.8 4-14.3 3.4-2.2 6-2.2 10-2.3zM289 394a13 13 0 0 1 7.1 7.9c-.1 4-1 6.6-3 10-3.4 2.5-5.4 3-9.6 3-4.3-1.2-6-2.3-8.4-6-1-4.7-.7-8 2-12 3.7-3.4 7.3-3.8 12-3zM147 175c4 2.4 5.7 4 7 8.4-.1 4.2-.7 6.2-3 9.6-3.4 2.4-5.4 3-9.6 3-4.3-1.2-6-2.3-8.4-6-.7-3.2-.7-6 0-9a13 13 0 0 1 14-6z"/></svg>