<svg xmlns="http://www.w3.org/2000/svg" width="512" height="512" xmlns:v="https://vecta.io/nano"><path  style="stroke:none;fill-rule:nonzero;fill:#ff4332;fill-opacity:1" d="M83.3-.4H87h4.2 4.4 12.2 13 25.7 21 6 3H233h52 53.2 30 25.4 13 12 4.3c8-.1 14.5 0 20.4 5.6a25 25 0 0 1 5.1 16.7v2.8 3 3V37l-.1 9.7-.1 6.2v3c-.2 6.7-.2 6.7-2.5 10a12 12 0 0 1-7.7 2c-2.7-.7-2.7-.7-5-2-7.5-15-2-33.3-2-50H81a2603 2603 0 0 0 2.6 100.9A442 442 0 0 1 84 144l2.4-.7A264 264 0 0 1 132 133l3.3-.4 9.7-.6h2.2c28-1 56 3.2 81.8 14 7.2 3 11.7 1.4 18.6-1.5l2.5-1c17.6-7.2 42.6-17 62-13.3 3.2 2.5 4 3.4 4.5 7.5-.5 3.5-.5 3.5-1.8 5.8-4.3 2.7-8.8 3-13.7 3.7-14.8 2.4-30.4 5.2-44 12a194 194 0 0 0 145 12 421 421 0 0 0 8.8-3.2c2.2-.8 2.2-.8 4.2-.8v-2l-2.6-.8-9.6-4a178 178 0 0 0-52.3-13.8l-2-.2a249 249 0 0 0-5.4-.5c-4-1-5.5-2.7-8-5.8-.6-3-.6-3 0-6 2.6-3.4 4-5 8.3-5.4A218 218 0 0 1 426 152l1-10.3.3-3.3 1.3-20.7.2-4.8.3-7 .3-6.6.2-4c.7-4 1.8-5.6 4.6-8.4 2-.6 2-.6 4-.6h2c3 .8 4 2 6 4.6l.3 7.3v2.2l-.3 7.5v2.6l-1 20.8-.2 3.4C439 237.3 423.2 338 404.6 439l-1.8 10-3 15.8-1 6c-5 26.6-5 26.6-10.5 32.6l-2 2.4a31 31 0 0 1-21.7 6.7h-3a1085 1085 0 0 1-9.6 0h-7-18.8-15.7-39a8824 8824 0 0 0-33.9 0h-35H183a2631 2631 0 0 1-18.4 0H158a736 736 0 0 1-9.2 0H146c-8.4-.1-15.4-3.3-21.3-9.3-8-10.2-9-24.5-11.3-37l-1.2-6.4-3-17-2.6-14c-16-84.3-16-84.3-21.6-122l-.3-2c-3-19.6-3-19.6-.2-24.2C86 279 86 279 89 278c3.8-.1 5.2.6 8 3a21 21 0 0 1 2.8 8.3l.4 2.6.4 2.8 1 6.2.5 3.3 13.8 83 3 16.5 2.2 12 1 5.5 1.4 7.5.4 2.2c1 5.8 3 11.8 7.5 15.8l2 1 2 1.2c4.2 2 8 2 12.5 2.2l4.6.1 7.2.1 7 .1h2.2c3.7.1 6.5.3 9.6 2.4 2 2.7 2 4 2 7.6-1 3.4-1 3.4-2.4 5-3.6 2-7 1.7-11 1.7h-3-5.2-8-5-2.4A42 42 0 0 1 130 466l2.3 11.2.6 3.2A21 21 0 0 0 139 494a44 44 0 0 0 16 2.3h2.7 9 6.5H191h18.4 31H276h30.6H325h17 6.3 8.6 2.5c5.8 0 11.3-.3 16-4.2 2.6-4.7 3.5-9.7 4.5-15l.7-3.3 1.6-8-3 1a40 40 0 0 1-11.3 1.3h-2-7-5-13.7-8.6-30a7917 7917 0 0 0-27.9.1h-24-14.3H222h-5a489 489 0 0 1-6.7 0h-3.8a9 9 0 0 1-7.2-4.5c-.6-2-.6-2-.6-4v-2c1-3.2 3-4.2 5.6-6 3.2-.5 3.2-.5 7-.5h2 6.8 5 10.6H252h41.6H326h16.6H353h4.8c9 .1 16.6-.2 24-5.6 4.6-5 5.3-10.7 6.4-17l.6-3.3 1.3-7 2-10.3 32-227-3.5 1.4A230 230 0 0 1 367 196l-3 .4c-16.8 1.8-34.2 1-51-1.4l-2.3-.3a232 232 0 0 1-73.5-26.7c-41-21.7-91.5-24.5-135.6-11.2l-9.8 3.4c-2.8 1-2.8 1-5.8 1l2.2 25 1 11.6 4.4 43.3c1.4 12.2 1.4 12.2-1 16.8a18 18 0 0 1-8.5 2c-3.3-1-4.2-2.7-6-5.6-1-3.7-1.2-7.4-1.6-11L76 240l-1-11-.8-7.7c-5.5-55.2-8.8-110.5-10-166L64 44V33.2v-6a37 37 0 0 1 5-22.1c4-4 8.5-5.5 14.4-5.5zm164.5 367c9.2 5.2 15 11.5 18 21.8a36 36 0 0 1-4.1 27.6c-5.5 8.2-13 12.8-22.4 15.6A39 39 0 0 1 210 424c-6.4-6-10.5-13.6-11.3-22.2-.3-11 1.3-20 9-28.2 10.8-10 26.7-13.2 40-6.8zm-30.6 21.5c-3 4.4-3 9.6-2.2 14.7 2.2 5.5 5.6 9.4 11 12 5.3 1.4 10 1.4 15-1a25 25 0 0 0 9.3-11.1c1-6 .2-11.3-3-16.5a19 19 0 0 0-12-7c-8.3-.3-13 2.4-18.3 8.7zm122-95.7c5.5 4.6 10.4 10.3 11.8 17.5 1 10-.7 17-6.7 24.8-4.3 4.8-10.6 8-17 8.4-9.2.2-15-1.3-22.4-6.4a29 29 0 0 1-9-21c.2-8.7 3-14.5 9-20.8 9.5-8.5 23.7-9.5 34.4-2.5zM316 307c-2.3 2.6-3.8 4.5-4.2 8 .3 4 1 5.8 3.6 9 4 3.2 6.4 3.5 11.6 3 3-1.6 5.3-3 7.4-5.8a21 21 0 0 0 .6-9.2c-2-3.7-5-6.7-9-8-4.5 0-6.2.7-10 3zm-75.2-63.4c6.3 3.2 9.8 7.7 12 14.3a26 26 0 0 1-1.2 17.4 25 25 0 0 1-14.6 12.3c-7.3 1.5-13.8.5-20-3.6-4.6-4.3-8.7-8.7-9.3-15.2-.1-13.5-.1-13.5 4.3-18.8a26 26 0 0 1 28.8-6.4zm-15.2 16c-2 3.2-2.3 4.8-1.6 8.4a9 9 0 0 0 5 4c3-.1 4.4-.6 6.8-2.3 1.5-2 2-3.2 2.3-5.7-1-2.8-1-2.8-3-5-4-1.2-6-1.7-9.4.6zm-50.8-75.3c4.6 3.5 7.4 8.3 9.2 13.7.7 7.4.7 14-4 20-5.4 5.8-10.3 9-18.4 9.3-7.6-.2-13.3-3-18.6-8.3a27 27 0 0 1-4.6-20.4 25 25 0 0 1 10.6-14.9 26 26 0 0 1 25.8.6zM155 200c-1.3 3.2-1.2 4.5.1 7.8 1.8 2.5 1.8 2.5 4.8 3.3 3.2.2 3.2.2 6-1.6 2.4-2.3 2.4-2.3 2.7-5.4-.7-3.7-1.5-5-4.6-7-4-.7-6.2.1-9 3z"/></svg>