<svg xmlns="http://www.w3.org/2000/svg" width="512" height="512" xmlns:v="https://vecta.io/nano"><path  style="stroke:none;fill-rule:nonzero;fill:#ff4332;fill-opacity:1" d="M13.4 52.5H16h8.6 6.2 17 18.4 34H132h2 8.5H222h70.6 79.3 8.4 2 31.4 35.7 18.2 16.7 6 8.2 2.4a17 17 0 0 1 9 2.2c2.6 3 2.6 4.6 2.6 8.6v4 4.3V76v12.5V102v26.5V150v3 6.2 55 53.4 58 6.2 3 21.5 26.2V396v12.2 4.4 6 3.4c-.6 3.5-1.7 4.6-4.5 7l-6 3.7-1.8 1-5.7 3.3-8 4.6-2 1-11.8 7-2.7 1.7-5 3c-4.4 2.7-8 4.6-13.3 4.5-2.7-1.6-2.7-1.6-5-4-.6-2.8-.6-2.8-.5-6v-3.5l.1-3.7.1-3.7c.1-3 .1-6 .2-9h-2.8H278h-20-2l-66.2.1-65.8.1H83.7 56 40 25a668 668 0 0 0-5.3 0h-7.2-2c-3.4 0-5.4-.5-8.3-2.3-2.4-2.6-2.7-3.6-2.7-7v-3-3.2-3.4V399v-8-19.8-16-2.3-4.6V305v-37.4-43.4-4.6-2.3-16-19.6-10V161v-3.2c.1-7 .1-7 3-10.4 3.5-2 5.5-1.4 9.5-.4l3 3v83h233V69H15v59c-5 4-5 4-8.6 4-4.5-1.2-4.5-1.2-6.4-4-.4-3-.4-3-.4-6.8v-2-6.8-4.7-10L-.6 85v-9.8-4.7V64v-3.8C0 57 0 57 2 54.8c3.8-2.4 7-2.4 11.4-2.3zM264 69v164h183l1-26c4-3 4-3 7.3-3 4 1 7 2.4 10.4 4.6l2 1 5.8 3.5 5.8 3.5 5.3 3.2 12.6 7V69H264zm198 156v212l17-9.6 3-1.8 3-2 3-2c4.6-2.6 4.6-2.6 8.7-5.8l.2-6.5v-2-7-5l.2-45.6.2-33.8.1-23.7V278v-13.3-5c.5-8.6.5-8.6-3-16-2.3-1.6-4.5-2.7-7-3.7l-3.3-2-3-1.8-3.3-2-3.4-2-3.5-2-3.3-2-3-1.8c-2-1.4-2-1.4-3.3-1.3zM15 249v164h233V249H15zm249 0v164h183V249H264zm23.7 23.4h2.7 3 3 6.3 9.7 6.2 3 2.7 2.4c3.6 1 5 2.7 7.3 5.6a44 44 0 0 1 .5 8v2.3l-.2 7.3-.1 5-.2 12.2h3.2l29.8-.2 15.3-.1 14.8-.1h5.6 8 2.4c3.8 0 5.8.5 9 2.7 2.4 3.5 2.7 6.2 2.7 10.4v2.2 7.2 5 10.6V364v10.4 5 7 2a15 15 0 0 1-2.4 8.3c-5.2 3.3-10.2 2.8-16.2 2.7h-4a1013 1013 0 0 1-10.8 0H380a3677 3677 0 0 1-19.1 0h-22-19-11.3H296h-3.8c-5-.1-8.2-.1-12.5-2.5-2.6-4.7-2.4-9-2.4-14.3v-3.4-11-7.7-16.2-18.7-18-7.7-11-3c.1-4.7.1-7.2 3-11 2.8-2 4-2.5 7.5-2.5zM294 289v94h24v-94h-24zm40 40v54h74v-54h-74zm-12.7-204c6.7 3.7 10.3 8.5 12.7 16a26 26 0 0 1-4 19 41 41 0 0 1-8 7h-3l.2 3.5.1 4.6.1 2.3c.1 4.3 0 6-2.8 9.5-2.7 2-2.7 2-5.7 2.6-4-1-5.4-2.3-8-5.6-.6-3-.5-5.8-.3-8.8l.1-2.4.2-5.8-1.8-.3c-4.6-1.4-8-4.7-10.6-8.7a26 26 0 0 1-2.7-17 27 27 0 0 1 14.3-16.8 24 24 0 0 1 19 1zm-15 16c-2.5 2.7-2.5 2.7-2.2 6 1 3 1 3 2.8 4.8 3.2 1.5 5 1 8.3.1 2-1.6 2-1.6 3-4-.1-3.5-.3-5.3-2.8-8-3.8-2-5.7-1.5-9 1zM77.7 307.6c5.4 5.5 7.6 10.6 8 18.3-.3 7-2 12-6.7 17l-4.3 2c-2.2 1-2.2 1-3.7 3a66 66 0 0 0-.6 11c.1 4 0 5.7-2.7 8.7-3.7 2-5.7 1.6-9.7.5-1.7-1-1.7-1-3-3v-8.3c0-6 0-6-2.8-10.8l-4.8-2.6c-4.2-2.3-6-5.8-7.3-10.3-1-7.6-1-14.6 3.3-21 9.5-10.7 22.5-11.5 34.4-4.3zM56 323c-.6 3.7-.5 5.3 1.7 8.4 2.2 1.8 2.2 1.8 4.8 2 3.4-.7 4.5-1.7 6.5-4.5.6-3.7.5-5.3-1.7-8.4-2.2-1.8-2.2-1.8-4.8-2-3.4.7-4.5 1.7-6.5 4.5z" /><path style="stroke:none;fill-rule:nonzero;fill:#ff4332;fill-opacity:1" d="M77.7 127.6c5.4 5.5 7.6 10.6 8 18.3-.3 7-2 12-6.7 17l-4.3 2c-2.2 1-2.2 1-3.7 3-.5 3.7-.7 7-.6 11 .1 4 0 5.7-2.7 8.7-3.7 2-5.7 1.6-9.7.5-1.7-1-1.7-1-3-3v-8.3c0-6 0-6-2.8-10.8l-4.8-2.6c-4.2-2.3-6-5.8-7.3-10.3-1-7.6-1-14.6 3.3-21 9.5-10.7 22.5-11.5 34.4-4.3zM56 143c-.6 3.7-.5 5.3 1.7 8.4 2.2 1.8 2.2 1.8 4.8 2 3.4-.7 4.5-1.7 6.5-4.5.6-3.7.5-5.3-1.7-8.4-2.2-1.8-2.2-1.8-4.8-2-3.4.7-4.5 1.7-6.5 4.5z"/><use href="#B"/><use href="#B" x="-30"/><use href="#B" x="-60"/><use href="#B" y="-180"/><use href="#C"/><use href="#C" x="-30"/><defs ><path  style="stroke:none;fill-rule:nonzero;fill:#ff4332;fill-opacity:1" id="B" d="M226 264.4h2c3.4 1 4.3 2.5 6 5.7.6 4 .6 8 .6 12v3.3c0 8 0 8-3 12-2.7 1.8-2.7 1.8-5.7 2.4-4.2-1-5.4-2-8-5.6a59 59 0 0 1-.6-12v-3.3c0-4.6.1-7.8 2.4-12 2.3-2 3.3-2.5 6.2-2.4z"/><path  style="stroke:none;fill-rule:nonzero;fill:#ff4332;fill-opacity:1" id="C" d="M474.5 84.5c4 .6 5 1.3 7.5 4.5.8 4.3.6 8.6.6 13v3.6 3.5 3.2c-.6 2.8-.6 2.8-3 5.2-2.7 1.6-2.7 1.6-6.3 1.6-4.4-1.2-4.4-1.2-6.4-4-.6-4.3-.5-8.6-.4-13l-.1-3.6V95v-3.2c1-5 3.2-6.6 8-7.3z"/></defs></svg>