<svg xmlns="http://www.w3.org/2000/svg" width="512" height="512" xmlns:v="https://vecta.io/nano"><path d="M57 40c2.7 4 3 7.3 2 12-2 3-2.6 3.8-6 5a111 111 0 0 1-11.6.7c-3.3.1-3.3.1-5.3 1.5-1.4 2.3-1 4-1 6.8h167.3H222h4 63.7H355h40.3H423h16 14.6 5.3 7.2 2c3.2.3 3.2.3 5.8-1 .3-2.5.3-2.5 0-5-3.5-2.3-5-2.2-9-2.2H461 457h-4.5H440h-13.3-23-36.3H355h-3-35.3-3.3H261h-53.7-33.2-22.7-13-12a355 355 0 0 0-4.3 0h-6-3.2c-4-.8-5.4-2.6-8-5.6a12 12 0 0 1 0-9.2c2.5-3.6 5-4.8 9-5.8 4.8-.4 9.5-.4 14.3-.4h4.4 12 13 25.6H213h53.2H318 374h6 3 21 25.3 13H454h4.3c11.5 0 21.5.3 30.5 8.3 5.8 7.3 6.6 14 6 23a22 22 0 0 1-8 13l-2.7 2.3C482 85 482 85 480 85v1.8 106 12.7 2.6 41l.1 42v26 18 10 11 3.3c0 7.4-.7 13.4-5.8 19.2L472 381l-2.4 2.2c-5.2 3.7-10.5 4-16.7 4h-2.4-8a6600 6600 0 0 0-5.8 0 5664 5664 0 0 1-15.7 0h-16.4-31H338h-73v13 3.8c-.1 6.7-.1 6.7 3 12.2a19 19 0 0 0 4.8 2.7c4.7 2.5 7.5 7.2 9.4 12 2.2 8 2 17-2 24.2a30 30 0 0 1-20 14.6c-8 1-14.5-.6-21.5-4.4-6.4-5.3-11.8-11.7-12.7-20.2a30 30 0 0 1 5.6-21.3c3-3.5 4.6-5.5 9-7 2-1 2-1 3.4-2.7 1-4.6 1-9 1-13.7v-3.8-9.4h-3l-73.5.2-35.5.1-31 .1H85.5 70h-5.7c-10.8.1-19.6.2-28.2-7-7.2-7.4-7.6-17.5-7.5-27.3v-3.5-11.5-8.3-17.8-25.7-41.7-2.5V207v-2.5-2.5-41.6-25.6V117v-10-11-3.2A32 32 0 0 0 28 85c-2.8-2.7-2.8-2.7-6-4a25 25 0 0 1-8-18.4 26 26 0 0 1 9-19.4c9-7.4 23.8-9 34-3zm-8 47l-.2 138.3-.1 43.7v25.8V312v20 10.2 11 3.2 3 2.5c.2 2.2.2 2.2 1.5 4 3 2 5.2 1.6 8.6 1.6h2 7 5 13.8 15 29.2 23.8 6.8 3.4 64.4 59 60.5 34 29 14.8H440h5 6.6 3.7c3-.3 3-.3 5-3a18 18 0 0 0 1.5-7.7v-3-3.2-3.4-11.4-8.3-20-23l-.1-60.8L461 87H49zm199 348c-2.3 3.5-2.5 5-2 9a9 9 0 0 0 4 5c3.4 1 5.8 1.3 9.3.5 2.8-2.4 3.7-5 4.8-8.5-.8-3.5-2-6-5-8-4.5-1.7-7-.5-11 2zm-99-265c3.5 3 5 6 5.4 10.7a279 279 0 0 1 0 10.5v4l-.1 10-.1 10.4V236h2.2 20.3H187h12 3.8 3.5 3c4 .3 6.8 1.2 9.6 4 4.4 8 1.5 19-.6 27.5A82 82 0 0 1 201 298l-1.8 2c-13 14.2-32.3 22.2-51.4 23.2-19.7.6-37.4-4.7-52.8-17.3l-2.4-2a75 75 0 0 1-25.8-50.5c-1.3-21 4-40 17.2-56.6l1.4-2c11.2-14.4 30-23.2 47.7-25.8 11.3-1 11.3-1 15.8.8zm-45.7 35c-11.6 12.5-17 26.6-16.7 43.5.7 16.3 7.8 29.6 19.6 40.8a60 60 0 0 0 46 13.5c8.3-1.5 16-4.3 23-9l2.3-1.5c10.7-7.8 19-19 21.8-32.2l.5-2.4.4-2H198l-20.6-.2-10.6-.1-12.2-.1h-3.8l-3.6-.1h-3c-3.3-.5-5.2-1.5-7.8-3.4-1.3-2.7-1.2-4.7-1.2-7.7l-.1-3.6v-4-4l-.2-10.6-.2-10.8-.3-21.2c-11 0-23 8-30.8 15.3zm92.7-72.4a80 80 0 0 1 38 19.4l1.8 1.6a77 77 0 0 1 22.5 49c.3 6 .3 9.4-3.8 14.2-2.7 2.2-5.7 2-9 2h-2.2-7.2-5a1023 1023 0 0 1-10.6 0H207h-10.4-5-7-2a11 11 0 0 1-8.3-3c-3.3-4-3.2-7.2-3.3-12.3v-2-6.7-4.7-9.8-12.5-9.8-4.6-6.4-3.7a20 20 0 0 1 3.4-9.4c6-4 15-2.6 22-1.4zm-5 19.4v47h46c-.6-6.5-.6-6.5-2.6-12l-1-2-1-2-1-2a57 57 0 0 0-32.4-27l-8-2zm99.3 64.7h3.8 4.2 4.4 12 12.5 21 24.3 21H406h11.7 4.3 6 3.3a19 19 0 0 1 9.7 3.4c2 3 2 5.3 2.3 8.8-1 3-2 5.3-4.7 7.2-3 1-5.4 1-8.5 1h-4-4.3-4.5H405h-10.2-24a7513 7513 0 0 0-24.8 0h-21.3H312a1864 1864 0 0 1-12 0h-4.4a562 562 0 0 1-6 0H286a14 14 0 0 1-8-3.4c-2.5-3.7-2.4-5.6-2-10 1.3-3 2.2-4.6 5.2-6 3.2-1 5.7-1 9-1zm0 43h3.8 4.2 4.4 12 12.5 21 24.3 21H406h11.7 4.3 6 3.3a19 19 0 0 1 9.7 3.4c2 3 2 5.3 2.3 8.8-1 3-2 5.3-4.7 7.2-3 1-5.4 1-8.5 1h-4-4.3-4.5H405h-7.6-26.6a6252 6252 0 0 0-24.8.1h-21.3a2486 2486 0 0 0-12.7 0h-12a452 452 0 0 0-4.4 0 421 421 0 0 1-6 0H286c-4-.6-6-2-9-4.5-1.5-3-1.2-5.6-1-9 1.3-3 2.2-4.6 5.2-6 3.2-1 5.7-1 9-1zm9-83h4.3 11.8 12.3 20.7 24H393h12 11.5 4.2c13.5-.1 13.5-.1 19.2 3.4 2.3 3.2 3 5 3 9-1.3 3.8-3 5.4-6 8-3 .6-3 .6-6.5.6h-4-4.3-4.6a1335 1335 0 0 1-12.4 0h-13a4852 4852 0 0 1-21.7 0h-25a5917 5917 0 0 1-24.2 0H311a1396 1396 0 0 1-12.1 0h-4.4a432 432 0 0 1-6.1 0H285c-3.7-.6-5.4-2-8-4.5-1.8-3.6-1.4-7.5-.4-11.2 5.4-6.6 15-5.2 22.7-5zm-8.8-36.8h2.3 7.6 5.3 11l14-.1h11 5.2 7.3 2.2c4.4 0 7 .7 10.6 3.4 2.5 3.7 2.4 5.6 2 10-1.3 3-2.2 4.6-5 6-3.5 1-6.8 1.2-10.4 1.2h-2.2-7.3-5-11a2158 2158 0 0 0-13.7 0h-10.6-5a696 696 0 0 1-7.1 0h-2a20 20 0 0 1-11.6-3.4c-2.6-3.3-2.4-7-2-11 4-6 7.8-6.2 14.5-6.2zm1 163h2.2 7.3 5 11 13.7 10.6 5 7 2A20 20 0 0 1 367 306c2.4 3.7 2.8 6.7 2 11a20 20 0 0 1-7 6l-7.4.2h-2.3-7.6-2.6-13.7l-14 .1h-11-5.2-7.3-2.2c-5-.1-8-1.4-11.7-4.5-1.5-3-1.2-5.6-1-9 1.3-3 2.2-4.6 5-6 3.5-1 6.8-1.2 10.4-1.2zm120.7 36h2.6 5.4 8.3 5.3 2.5c5.3.1 9 1 13.7 3.4 2 2.5 2 4.2 2.4 7.4-.4 4.2-1.4 5.7-4.4 8.6-2.8 1-4.4 1-7.3 1.2H438h-2.8-3-6l-9.3.1h-6-2.8c-5 0-8.2-.1-12.2-3.4-2.3-3.2-2.3-6-2-10 .6-2.2.6-2.2 2-4 5.5-3 10-3.4 16.2-3.4zm-27.2 3.6c1.8 3 2 5.4 2 8.8-1.2 3.2-2 5.3-4.7 7.4-3.3 1-6 1-9.2.6-2.8-1.8-4.5-3-6-6-.7-7-.7-7 2.3-11 5.4-4 9.8-3.5 15.6.1zM83 39a12 12 0 0 1 4 9c-2 6.2-2 6.2-4.7 8.4-4 1-7.7 1-11.6-.2-2.4-1.7-3.5-3.4-4-6.3-.1-4.4-.1-6.3 2.6-10 5-3.7 7.8-3.3 13.8-1z" style="stroke:none;fill-rule:nonzero;fill:#ff4332;fill-opacity:1"/></svg>