<svg xmlns="http://www.w3.org/2000/svg" width="512" height="512" xmlns:v="https://vecta.io/nano"><path style="stroke:none;fill-rule:nonzero;fill:#ff4332;fill-opacity:1" d="M72-.1h2.4 8 5.8H104h9.8 30.6l35.4-.1H207h16.3 15.4 5.6 7.7 2.3c3.3 0 5.3.3 8 2.2 2 3 2 5 1.8 8.6V14v2h2l47-.2 22.7-.1 19.8-.1H366h11.7 3.5c6.2 0 10 .3 14.7 4.5 5.4 5.6 4.6 12.2 4.5 19.5v3.7c0 11 0 11-4.5 15.8-5.4 4.2-9 5-15.8 5h-3.5-3.8-4-10.2-10.4H328v16h5 47l24.2-.1 21-.1h11.2H449h3.7c6.4 0 10.5.1 15.3 4.5 3.8 4.5 4.5 7.6 4.4 13.4v2l-.1 6.4-.1 4.4-.2 10.7 2.4 1c2.7 1 4.5 2.4 6.8 4.3l2 1.7c4.4 5 5.3 10.4 5.3 17v2.3 7.4 5.2 10.8 13.8 10.6 5c.1 17.8.1 17.8-6.3 25l-1.7 1.4-1.7 1.4a44 44 0 0 1-5.8 3.2v1.7l-.2 98.5V343v2.4l-.1 38-.1 39v24V465v7.6V483v3c-.1 7.2-1.8 11-7 16-5.7 2.6-11.5 2-17.6 1.6l-.3 3c-.7 3-.7 3-3.7 5-4 .4-8 .3-12 .3h-3.4-3.2-3c-2.5-.4-2.5-.4-4.3-1.6-1.2-1.8-1.2-1.8-2.2-6.8H96l-2 6c-3.6 3.6-9 2.4-14 2.4h-3.3-3.2-3c-3.4-.6-4.6-1.7-6.6-4.5v-4h-3c-10.2.3-10.2.3-14.8-1.8-5-5-6.8-9-7-16v-3-3.3l.1-10.8v-7.8V444v-24.2-39.2-2.4l.1-33.3v-2.4-2.4-39-24-18.5-7.6-10.3-3a23 23 0 0 0-1-7.5 21 21 0 0 0-6-4c-4-2-6.2-5.4-8-9.2-1-3.5-1.2-6.8-1.2-10.4V205v-7.4-5.2-10.8V168v-10.7-5c-.1-18-.1-18 6.5-25.4l2-1.7 2-1.7c2-1.4 3.6-1.8 6-2.3v-3.6l-.2-33.8-.1-17.4-.1-16.8V43v-9-2.6c.1-9.2 3.2-17 9.5-23.6 7-6.2 13.8-8 23-8zM59 21c-3.3 5.2-3.4 9.3-3.3 15.2V39v9 5.5l.1 20.4.2 46h128l3-9c2.6-3.2 4-4.7 8-6 1.7-.1 3.5-.2 5.2-.2l3.3-.1h3.4l3-.1 11.7-.2 26.3-.4V15h-62.6H147h-28-14.8-14-5-7-4c-6.3.4-11 1.8-15.6 6.2zm205 10v49h48l1-20 3-6v-2a26 26 0 0 1 12.9-3.2l3.7-.1h4l4-.1 10.8-.2 11-.2L384 48V31H264zm0 65v8h2l20.3.2 7.6.1 11 .1h3.4c6.5.1 10.6.7 16 4.6 2.3 3.6 3.2 6.8 4 11h3.5l32.4.2 16.6.1 16 .1h6l8.6.1h2.6c5.8.1 5.8.1 8 1.7 2 2.8 1.6 5.3 1.3 8.7-2 3-2 3-5 4h-8.6-2.7l-8.7.1-6 .1-16 .2-16.2.2-31.8.3v2l-.2 20.3v7.6 11 3.4c-.1 6.2-.4 10-4.6 14.8-3.8 3.3-7 4-12 4h-3-3.3-3.5H290h-6-17l-21.6.1h-16.7-10-11-3.3c-5.5 0-9.6-.2-14.3-3.4-3.7-4.2-5-6.6-5.2-12l-.1-3.2V177l-.1-3.6-.2-11.3-.1-7.6-.3-18.7-54-.2-25-.1-22-.1H71.3h-11-6H51h-3c-3.6.6-5.2 2-7.8 4.5-.8 3.2-.8 3.2-.6 7v2 6.8 4.7 10V183v9.8 4.7 6.5 3.8c.8 4.3 2.3 5.6 5.6 8.3 3.4.7 3.4.7 7.2.6h2.2 7.2H67h14.4H97h30 24.7 3.5 7H229h57.4H353h7 3.5H388h30 15.3 14 5 7 4c4.2-.8 5.7-2.3 8.3-5.6.8-3.3.8-3.3.6-7v-2-6.8-4.7-10V168 158v-4.7-6.5-3.7c-.4-3.3-.4-3.3-3-5.5-2.8-1.7-4.3-2-7.6-2l-2.8-.1h-3-5.6-2.5c-3-.5-4.2-1.4-6.3-3.4-1-3.2-1.3-5-.2-8.3 1.2-1.7 1.2-1.7 3.2-2.7l11-1V96H264zm-64 24v64h112v-64H200zM56 232v64h32v-64H56zm48 0v64h16v-64h-16zm32 0v16h240v-16H136zm256 0v64h16v-64h-16zm32 0v64h32v-64h-32zm-288 32v32h240v-32h-32l-1 11c-1.7 2.7-1.7 2.7-4 4-3.5.6-5.2.4-8.3-1.3C329 275 329 275 328 264h-64l-1 11c-1.7 2.7-1.7 2.7-4 4-3.5.6-5.2.4-8.3-1.3C249 275 249 275 248 264h-64l-1 11c-1.7 2.7-1.7 2.7-4 4-3.5.6-5.2.4-8.3-1.3C169 275 169 275 168 264h-32zm-80 48v112l17 1c5 3 5 3 6 6 .1 3-.2 4.5-2 7-6.3 3-14 1.6-21 2v49h88l1-15c2.5-7 6.4-11.3 12.8-15 5-2 10.3-2 15.7-2h2.2 7.4 5.3 14.3 9H243h29 25 15 14 5 7 4a27 27 0 0 1 20.5 9.2c5.7 7.7 4.5 12.5 5.3 23h88v-49h-13.5L320 440h-16-3.2H249h-53l-32.8-.1H141h-13a1891 1891 0 0 1-11.9 0h-4.3a533 533 0 0 1-5.8 0h-3.3c-2.7-.4-2.7-.4-4.5-1.7-2-2.8-1.4-5.4-1-8.7 2-3 2-3 5-4h6 3.8 4 4.4 12 13l22.6-.1 32.6-.1 53-.1H305h3.2 16l132-.3V312H56zm104 165v12h192v-12c-5-5-7.2-5-14-5h-2.2-7.3-5.2H309h-9-27.8-32-24.8-14.8-14a822 822 0 0 1-5.1 0 704 704 0 0 0-7 0h-4c-4.6.5-7.2 2-10.4 5.4zm196.6-293.6h4c3.5.6 3.5.6 6 2.4 2.3 3.2 2.2 5.3 1.6 9.2-1.7 3-1.7 3-5 5-5.5.7-10.7 1-15.8-1.3-2.4-2-3-2.6-3.3-5.6l-.3-2c1.4-6.8 7-7.8 13-7.7zm-201.2 0h4c4.5.8 6 2 8.6 5.6.4 2 .4 2 .1 4v2c-1.3 2.8-3 3.6-6 5-6 1-11.2 1-16.3-2-2-3.7-2.4-5.7-1.7-10 3.2-4.5 6-4.6 11.4-4.6z"/><use href="#B"/><path style="stroke:none;fill-rule:nonzero;fill:#ff4332;fill-opacity:1" d="M436.4 151.7l2-.1c3.4 0 5.3.2 8 2.2 1.6 2.3 2 3.4 2 6.2v2c-1 3.2-2.8 4.3-5.6 6-3.2.5-3.2.5-6.5.5h-3.3c-3.8-.6-5.5-1.8-8.2-4.5-1.3-3.7-1.3-5.3.3-8.8 3-4 6.4-3.4 11-3.5z"/><use href="#B" y="-32"/><path style="stroke:none;fill-rule:nonzero;fill:#ff4332;fill-opacity:1" d="M356.5 151.6l4-.1c3.5.5 3.5.5 6 2.3 2.3 3.2 2.2 5.3 1.6 9.2-1.7 3-1.7 3-5 5-5.8.7-12 1.3-17-2-2-2.7-2-4-2-7.6 1-3.4 1-3.4 2.5-5 3.4-1.8 6-1.7 10-1.7zm-201-.2h4c4.4.8 6 2 8.6 5.6 0 3.7-.2 6-2.4 9-4.8 3.5-11 2.7-16.6 2-3.3-2-3.3-2-5-5-.6-4-.8-6 1.6-9.2 3.4-2.5 5.7-2.4 10-2.4zm281 32h4c3.5.5 3.5.5 6 2.3 1.6 2.3 2 3.4 2 6.2v2c-1 3.2-2.8 4.3-5.6 6-3.2.5-3.2.5-6.6.4H433a14 14 0 0 1-7.1-2.3c-2-2.5-2-3.8-2-7 2-6.8 5.7-7.6 12.4-7.5z"/><defs ><path id="B" style="stroke:none;fill-rule:nonzero;fill:#ff4332;fill-opacity:1" d="M396.5 183.6l4-.1c3.5.5 3.5.5 6 2.3 1.6 2.3 2 3.4 2 6.2v2c-1 3.2-2.8 4.3-5.6 6-3.2.5-3.2.5-6.6.4H393a14 14 0 0 1-7.1-2.3c-2-2.7-2-4-2-7.6 1-3.4 1-3.4 2.5-5 3.4-1.8 6-1.7 10-1.7z"/></defs></svg>