<svg xmlns="http://www.w3.org/2000/svg" width="512" height="512" xmlns:v="https://vecta.io/nano"><path  style="stroke:none;fill-rule:nonzero;fill:#ff4332;fill-opacity:1" d="M112.4-.3h3.2 3.4 3.5 7.3H141h7 3.4 3.2 2.8c3.3.7 4.4 2 6.5 4.5.5 3.7.7 6-1.4 9.2-4 2.8-8 2.4-13 2.4h-3-9.6l-9.6.1h-6c-7.3-.1-7.3-.1-13.5 3.3-.3 4-.3 5.6 2 9a27 27 0 0 0 9 1h3 3.3 3.5 9.7 10.4H169h16.6 2.4 4.8 45 38.6 44.8 4.8 2.4H345h20.2 10.3 11.2 3.3 3 2.6c2.6-.1 5-.6 7.4-1 1-5.6 1-5.6 0-11a54 54 0 0 0-13.6-1.1h-2.6-8.7-6-13.4-21.2-3.6-7.3-49.3c-11 0-22.2 0-33.2-.1h-17.6a2231 2231 0 0 1-16.5 0h-6-8.3-2.6c-4-.1-5.6-.3-8.5-3-2-4-1.5-6-.5-10 1.3-1.7 1.3-1.7 3-3a84 84 0 0 1 8.6-.4h2.7 9 6.4H231h18.2H280h35.5H346h18 17 6.3 8.6 2.5c7 .1 12.2 2.5 17.5 7.4 4.5 6.4 5.7 12.3 5 20-1.2 5-3.3 9.3-7 13l-3.6 1.3c-2 1-2 1-3.4 2.7a45 45 0 0 0-.8 12.7v4V69v13.4l.1 23.6.1 35.5V155v6.3l.1 7.7v3.4 3c-.6 3.5-2 5.2-4.5 7.7-2 .6-2 .6-4 .6h-2c-2-.6-2-.6-6-4.6V45H122v179h268v-17c5-5 5-5 8-5.6 3 .6 4.8 1.4 7 3.7 2.5 4.8 1.8 10.7 1.7 16l.1 4v3.7 3.4c-1 4.3-2 5.6-5.6 8-4 .7-7.7.6-11.6.5H386l-10.8-.2-7.3-.1-18-.2v24h10.8l10.4-.1h7.2 10.4l3.2-.1c8 0 15 1.4 21.3 6.3l1.5 2 1.6 2a36 36 0 0 1 5 21l.1 2.8c0 4.4-.2 7-2.5 10.7-3.3 2-4.5 2-8.3 2H408h-2v1.8V331v7c.4 32.8-6.3 60-29.5 84.4a102 102 0 0 1-43.2 24.2l-2.2.6c-7.3 1.8-14.8 2-22.3 2.5l.6 2 6.2 19.5 2.3 7.3 3.3 10.5 1 3.3c1.8 5.7 3.2 10.7 2.4 16.7-2 2.6-3.2 3.8-6.5 4.5h-3-3.3-3.6-4-10.5-8.7-20.6-21.2H225h-11-12-3.6c-8-.1-8-.1-11.5-3-3-6.8 1-15.2 3-22l1-3.2 2-6.6 3.2-10.2 2-6.4 1-3 1-2.8.8-2.5 1.7-4H200c-28.3-1.3-52.7-13.4-71.8-34.2-20-23-23-49.4-22.7-78.8l.1-7.6.2-18.3h-2.3c-8 .3-8 .3-11.4-1.8-2.5-4.4-2-9-2-14V292A31 31 0 0 1 96 272c8-7.8 16-8.3 26.8-8.2h3.4l10.7.1h7.3H162v-24h-11.2H140h-7.5l-10.8.1-3.4.1H115h-2.8c-3.4-.7-4.4-1.8-6.5-4.5-.4-2.7-.5-5-.5-7.8v-2.4-8-5.7l.1-15.4v-16l.1-30.5.1-34.7.2-71.5-2.3-1c-5.7-2.4-9.5-6-12-11.7-1.8-6.4-2-13.7 1-20A23 23 0 0 1 112.4-.3zM178 240v24h156v-24H178zm-69 42c-2 3.2-2.2 4-2 7.7v2.4 2h1.8l19 .3 7 .1 10 .2h3.2l3 .1h2.6a27 27 0 0 1 6.3 1.2c1.2 7.3 1.2 7.3.2 10.4-1.2 1.6-1.2 1.6-3.2 2.6l-8 .3-2.3.1-7.4.2-5 .1-12.3.3-.2 21.3-.1 7.2c-.2 13.7-.2 26.3 4.3 39.4l1 3a75 75 0 0 0 19 28l2.3 2.3c16.6 16 38 22 60.5 22h3.4 11 7.7 16 18.5 18 7.6c29.2.1 54.7-4.3 76.2-25.4 16-16.5 23-38 23-60.4V344v-10-7-17H387l-76.8-.2-37-.1-32.4-.1h-17-16-6-8-2.7c-3.5-.1-5.5-.3-8.4-2.4-2-3-2-4.6-1.5-8.2 1.5-2.2 1.5-2.2 4-4l8.8-.5h2.7 9 6.5 17.7l18.5-.1h35l39.8-.1 82-.2c.4-5.8.4-5.8-2-11-3-3-4.7-3.2-8.8-3.2h-3-3.3-3.5-9.7-10.5-20.6H327h-47.4-2.6-2.6H233h-42.6-24H146a3020 3020 0 0 1-10.4 0 2740 2740 0 0 0-11.3 0H121h-3-2.6c-2.6.3-4 .8-6.3 2.2zm111 167c-9.4 22.5-9.4 22.5-15 48h101l-4.8-19.3-.7-2.2-2.6-8-6-18.4h-72zm252-299c3 2.3 4 3.6 4.8 7.4l.5 3.8a27 27 0 0 0 9.6 18.4 47 47 0 0 0 19.8 6.8c2.6.8 3.7 1.5 5.3 3.7.8 7 .8 7-1.7 10.2-2.8 2.2-4.6 2.4-8 2.8a29 29 0 0 0-20.6 11.5c-3.4 5-4.5 10.4-5 16.4-.6 3-.6 3-2 5.6a12 12 0 0 1-8.5 2c-2-.4-2-.4-4.3-2.2-1.6-3.2-2-5.4-2.5-9-1.2-8.2-4.4-14.6-11-19.7-4.8-3-10-4-15.6-5.2-3-.6-5-1-7.4-3.4a11 11 0 0 1-1.1-8.1c1.8-2.7 1.8-2.7 5-5l5.7-1c7.4-1 13.3-3.5 18.2-9.3 3.5-5 6.2-10 6.4-16.3.3-3.5.7-4.5 2.8-7.6a11 11 0 0 1 9.9-1.9zm-5 34l-1.5 1.7-2 2.2-2 2.2c-1.5 2-1.5 2-3.5 3 1.3 4 3.8 5.4 7 8l2 3c3.2-1.4 5.3-3 7.8-5.6l2-2 1.4-1.5a21 21 0 0 0-11-11zM43.4 198.4a12 12 0 0 1 6.4 2.3c2.3 3.4 2.6 5 3 9a27 27 0 0 0 9.2 18.2 36 36 0 0 0 15.3 6.5l2.7.5 2.5.4c3 1 3.7 2 5.3 4.8.5 3 .5 3 0 6-3.6 4.4-6.2 5.6-11.7 6.4-7.7 1.5-13 3.6-18 9.8-3.7 5.6-4.8 10.6-5.7 17.2-.6 3.6-1.5 5.5-4.5 7.7-2.8.6-5.2.8-8 0-3-2.3-4-3.6-4.8-7.4l-.5-4C33 267 30 262.2 23 256.6a29 29 0 0 0-15.2-5C4 251 4 251 1.5 249.4-.7 246-1 243 0 239c3.4-4.5 8-4.6 13.2-5.4 4-.8 7.3-2.5 10.8-4.6l2-1c2.4-1.4 3-2.6 4-5l1-1.7a35 35 0 0 0 4.3-15.5c1.2-4.7 3.4-6.5 8-7.3zM43 233l-3.7 4.5c-1.6 1.8-3.3 3.2-5.3 4.5 1.4 3.2 3 5.3 5.6 7.8l2 2L43 253c4-1.3 5.4-3.8 8-7l3-2v-2l-4-3.5c-4-3.3-4-3.3-5-5.5h-2zM191.2 72l2.5 1.3c7.6 4 7.6 4 10.3 7.6.6 3.4.6 3.4 0 7-4 5-9.4 7.6-15 10.6l-2.7 1.4c-10.3 5.3-22 11.3-33.8 8a28 28 0 0 1-15-13.3c-2.6-7-2.5-14 .5-20.8 3.2-6 7.2-9.8 13.5-12.2 14.5-3.8 27.3 4 39.7 10.5zm-37 7c-2.4 2.8-2.4 2.8-2 6.6 1 4 1 4 4 6.4 4.4 1.4 6.8.6 11-1.2l3.2-1.4A198 198 0 0 0 179 85c-3-2.5-6.2-4-10-5.7l-3-1.3c-4.8-1.6-7.8-2-12 1zM30 324c2 1.2 2 1.2 3 3l1 6 2.8.3c3.2.7 3.2.7 5 1.8A15 15 0 0 1 44 344c-1.6 3-1.6 3-4 5-3.2.3-3.2.3-6 0l-.2 3.3c-.8 3.8-.8 3.8-3 6.3-3.8 2-5.8 1.6-10 .5-2-1-2-1-3-3v-7l-3.2.3c-3.6-.4-3.6-.4-6-2.4-2-4-1.5-6-.5-10 1-2 1-2 3-3 3.7-.7 3.7-.7 7-1l-.3-2.7c.3-3.2.3-3.2 2.4-5.7 3.8-2 5.8-1.7 10-.6zm461-49c2 1.2 2 1.2 3 3 .2 3.2.2 3.2 0 6l3.3.2c3.8.8 3.8.8 6.3 3 2 3.8 1.6 5.8.5 10-1 2-1 2-3 3h-7l.3 3.3c-.3 3.8-.3 3.8-2.4 6.3-3.8 2-5.8 1.6-10 .5-2-1-2-1-3-3-.7-3.7-.7-3.7-1-7l-2.7.3c-3.2-.3-3.2-.3-5.7-2.4-2-3.8-1.7-5.8-.6-10 1.2-2 1.2-2 3-3l6-1 .3-2.8c.7-3.3 1-4.2 3.7-6.2 3-1.6 5.6-.7 9 0z"/><path  d="M63 141c2 1.2 2 1.2 3 3l1 6 4 .8c4 1 4 1 5.7 3 .8 4 .4 7.7-1.7 11.3-2.6 1.5-4.8 1.3-7.8 1l-.2 3.3c-.8 3.8-.8 3.8-3 6.3-3.8 2-5.8 1.6-10 .5-2-1-2-1-3-3v-7l-3.2.3c-3.7-.3-3.7-.3-6.2-2.4-2-3.8-1.6-5.8-.5-10 1-2 1-2 3-3 3.7-.7 3.7-.7 7-1l-.3-2.7c.3-3.2.3-3.2 2.4-5.7 3.8-2 5.8-1.7 10-.6zm395-49c2 1 2 1 3 3 .2 3.7.2 3.7 0 7l3.3-.3c3.8.3 3.8.3 6.3 2.4 2 3.8 1.6 5.8.5 10-1 2-1 2-3 3h-7l.3 3.3c-.3 3.8-.3 3.8-2.4 6.3-3.8 2-5.8 1.6-10 .5-2-1-2-1-3-3-.7-3.7-.7-3.7-1-7l-2.7.3c-3.2-.3-3.2-.3-5.7-2.4-2-3.8-1.7-5.8-.6-10 1.2-2 1.2-2 3-3 3.2-.2 3.2-.2 6 0l.3-3.3c1-4.7 1-4.7 3.7-6.7 3-1.6 5.6-.7 9 0z"    style="stroke:none;fill-rule:nonzero;fill:#ff4332;fill-opacity:1"/></svg>